<?xml version="1.0" encoding="utf-8"?>
<!-- Generator: Adobe Illustrator 19.0.0, SVG Export Plug-In . SVG Version: 6.00 Build 0)  -->
<svg version="1.1" xmlns="http://www.w3.org/2000/svg" xmlns:xlink="http://www.w3.org/1999/xlink" x="0px" y="0px"
	 viewBox="25 12 91.1 20" style="enable-background:new 25 12 91.1 20;" xml:space="preserve">
<style type="text/css">
	.st0{fill:none;}
	.st1{font-family:'PRIMETIME-Regular';}
	.st2{font-size:10px;}
	.st3{fill:#020101;}
	.st4{fill:#FFFFFF;}
</style>
<rect x="43.2" y="18.6" class="st0" width="69.5" height="10.2"/>
<text transform="matrix(1 0 0 1 43.222 25.1809)" class="st1 st2">GhostShell</text>
<path class="st3" d="M29,15.6c-0.1,0.2-0.1,0.3-0.2,0.6c-0.1,0.4-0.1,0.5-0.1,0.5c-0.1,0.4-0.1,0.4-0.1,0.6c0,0.2-0.1,0.5-0.1,0.9
	c-0.1,0.5-0.1,0.8-0.1,1.2c0,0.4,0,0.6,0.1,1c0.1,0.3,0.1,0.3,0.2,0.6c0.1,0.4,0,0.7,0,1c-0.1,0.8,0.4,1.5,0.5,1.7
	c0.3,0.5,0.8,0.9,1.5,1.3c0.6,0.4,0.9,0.5,1.5,1c0.3,0.2,0.6,0.5,0.8,0.9c0.1,0.2,0.1,0.4,0.2,0.6c0.1,0.5,0,0.7,0,1.1
	c0,0.5,0.2,1.2,0.3,1.2c0.1,0,0.2-0.3,0.2-0.5c0-0.2,0-0.4,0-0.5c0-0.3,0-0.6,0.1-1.2c0-0.2,0.1-0.8,0.1-0.8c0,0,0,0.3,0.2,0.6
	c0.1,0.1,0.2,0.4,0.2,0.4c0.2,0,0.1-1.2,0.3-1.2c0.2,0,0.3,0.5,0.5,0.5c0.2,0,0.1-0.7,0.3-0.8c0.1,0,0.2,0.1,0.2,0.1
	c0.3,0.4,0,0.7,0.2,1.3c0.1,0.3,0.2,0.6,0.3,0.6c0.2,0,0.4-1.1,0.5-1.5c0.1-0.6,0.1-1,0.5-1.3c0.1-0.1,0.1-0.1,0.3-0.1
	c0.6-0.2,1.1-0.5,1.4-0.7c0.5-0.3,0.7-0.7,1-1c0.2-0.3,0.6-0.8,0.7-1.6c0.1-0.7-0.1-0.8,0-1.8c0-0.5,0.1-0.4,0.1-0.8
	c0-0.3,0-0.6-0.1-1.7c-0.1-0.9-0.2-1.3-0.3-1.8c-0.1-0.2-0.3-0.8-0.5-0.8c-0.1,0-0.1,0.2-0.2,0.4c-0.4,0.4-1.5,0.2-1.8,0.1
	c-0.6-0.1-0.9-0.3-1.3-0.5c-1.5-0.7-2.2-1-3.1-1.1c-1,0-2.1,0.4-2.4,0.8c-0.1,0.2-0.2,0.3-0.4,0.4c-0.5,0.5-0.6,0.5-0.7,0.5
	c-0.2,0-0.2-0.5-0.4-0.5C29.2,15.4,29.1,15.5,29,15.6z"/>
<path class="st4" d="M30.6,20.3c0,0,0.3,0.2,0.8,0.4c0.5,0.2,1.9,0.8,2.5,1.1c0,0,0.1,0,0.1,0.1c0.2,0.2-0.4,0.8-0.8,1.1
	c-1.1,0.8-2.6,0.9-2.7,0.7c0,0,0-0.1,0-0.1c0,0,0.1,0,0.3-0.1c0.1,0,0.2,0,0.2-0.1c0-0.1-0.2-0.2-0.2-0.2c-0.3-0.2-0.9-0.7-1.1-1.1
	c-0.3-0.6-0.2-1.5-0.1-1.7c0,0,0.1-0.1,0-0.2c0,0-0.1-0.1-0.1-0.2c0,0,0-0.1,0-0.1c0,0,0.2,0,0.3,0.1C30.1,20.1,30.3,20.2,30.6,20.3
	z"/>
<path class="st4" d="M38.4,20.3c0,0-0.3,0.2-0.8,0.4c-0.5,0.2-1.9,0.8-2.5,1.1c0,0-0.1,0-0.1,0.1c-0.2,0.2,0.4,0.8,0.8,1.1
	c1.1,0.8,2.6,0.9,2.7,0.7c0,0,0-0.1,0-0.1c0,0-0.1,0-0.3-0.1c-0.1,0-0.2,0-0.2-0.1c0-0.1,0.2-0.2,0.2-0.2c0.3-0.2,0.9-0.7,1.1-1.1
	c0.3-0.6,0.2-1.5,0.1-1.7c0,0-0.1-0.1,0-0.2c0,0,0.1-0.1,0.1-0.2c0,0,0-0.1,0-0.1c0,0-0.2,0-0.3,0.1C38.9,20.1,38.7,20.2,38.4,20.3z
	"/>
</svg>
